<?xml version="1.0" encoding="utf-8"?>
<!-- Generator: Adobe Illustrator 19.0.0, SVG Export Plug-In . SVG Version: 6.00 Build 0)  -->
<svg version="1.1" id="Layer_1" xmlns="http://www.w3.org/2000/svg" xmlns:xlink="http://www.w3.org/1999/xlink" x="0px" y="0px"
	 viewBox="0 0 454 76" style="enable-background:new 0 0 454 76;" xml:space="preserve">
<style type="text/css">
	.st0{fill:#010101;}
</style>
<path id="XMLID_2_" class="st0" d="M51.3-0.5v31.8H9.5V-0.5H0.1v76.4h9.4V40.3h41.8v35.5h9.2V-0.5H51.3z M81.1,75.9h9.4V-0.5h-9.4
	V75.9z M162.4-0.5v62.1l-41-62.1h-10.5v76.4h9.4V13.7l41,62.2h10.3V-0.5H162.4z M239.5-0.5l-38.4,37.3V-0.5h-9.3v76.4h9.3v-27
	l13.1-12.5l28.1,39.5H254l-33-46l31.7-30.4H239.5z M265.4-0.5v76.4h48.7v-9h-39.3V-0.5H265.4z M327.9-0.5v76.4h54.6v-9h-45.2V40.4
	h40.8v-8.9h-40.8V8.4h45.2v-8.9L327.9-0.5L327.9-0.5z M443.2-0.5l-20.5,34.8L402.3-0.5h-10.8L418,42.9v33h9.3v-33l26.5-43.4H443.2z"
	/>
</svg>
